General
Complete name                  : Hitman.2007.UNRATED.720p.BluRay.DTS.x264-AMX.mkv
Format                         : Matroska
Format version                 : Version 2
File size                      : 3.03 GiB
Duration                       : 1h 34mn
Overall bit rate               : 4 600 Kbps
Writing application            : mkvmerge v6.1.0 ('Old Devil') built on Mar  2 2013 14:32:37
Writing library                : libebml v1.3.0 + libmatroska v1.4.0

Video
ID                             : 1
Format                         : AVC
Format/Info                    : Advanced Video Codec
Format profile                 : High@L4.0
Format settings, CABAC         : Yes
Format settings, ReFrames      : 8 frames
Codec ID                       : V_MPEG4/ISO/AVC
Duration                       : 1h 34mn
Bit rate                       : 3 000 Kbps
Width                          : 1 280 pixels
Height                         : 544 pixels
Display aspect ratio           : 2.35:1
Frame rate mode                : Constant
Frame rate                     : 23.976 fps
Color space                    : YUV
Chroma subsampling             : 4:2:0
Bit depth                      : 8 bits
Scan type                      : Progressive
Bits/(Pixel*Frame)             : 0.180
Stream size                    : 1.97 GiB (65%)
Writing library                : x264 core 130 r2273 b3065e6
Default                        : Yes
Forced                         : No

Audio
ID                             : 2
Format                         : DTS
Format/Info                    : Digital Theater Systems
Mode                           : 16
Format settings, Endianness    : Big
Codec ID                       : A_DTS
Duration                       : 1h 34mn
Bit rate mode                  : Constant
Bit rate                       : 1 509 Kbps
Channel(s)                     : 6 channels
Channel positions              : Front: L C R, Side: L R, LFE
Sampling rate                  : 48.0 KHz
Bit depth                      : 24 bits
Compression mode               : Lossy
Stream size                    : 1 017 MiB (33%)
Language                       : English
Default                        : Yes
Forced                         : No

Subs(SRT-Muxed):English(SDH), Romanian, Spanish

Chapters: Yes (not named)

Source:Hitman 2007 Unrated BluRay ReMux 1080p AVC DTS-HD HR-3Li Thanks!!!